<?xml version="1.0" encoding="UTF-8" standalone="no"?>
<svg
   xmlns:dc="http://purl.org/dc/elements/1.1/"
   xmlns:cc="http://creativecommons.org/ns#"
   xmlns:rdf="http://www.w3.org/1999/02/22-rdf-syntax-ns#"
   xmlns:svg="http://www.w3.org/2000/svg"
   xmlns="http://www.w3.org/2000/svg"
   viewBox="0 0 960 960"
   height="960"
   width="960"
   xml:space="preserve"
   id="svg2"
   version="1.1"><metadata
     id="metadata8"><rdf:RDF><cc:Work
         rdf:about=""><dc:format>image/svg+xml</dc:format><dc:type
           rdf:resource="http://purl.org/dc/dcmitype/StillImage" /></cc:Work></rdf:RDF></metadata><defs
     id="defs6" /><g
     transform="matrix(1.3333333,0,0,-1.3333333,0,707.96)"
     id="g10"><g
       transform="scale(0.1)"
       id="g12"><path
         id="path14"
         style="fill:#ccb567;fill-opacity:1;fill-rule:nonzero;stroke:none"
         d="m 3352.85,5181.47 -56.96,-19.3 c -609.79,-193.36 -899.52,-565.92 -965.96,-661.88 -23.03,-22.89 -188.55,-305.99 -266.29,-383.4 -191.54,-24.03 -693.92,-153.67 -935.63,-440.41 -137.549,5.07 -356.033,1.62 -358.541,1.62 -89.531,-6.58 -166.512,-63.67 -195.934,-145.39 -5.754,-15.73 -12.441,-41.59 -12.441,-73.1 0,-51.47 18.226,-119.66 89.379,-187.46 44.918,-42.85 117.867,-89.87 195.207,-130.36 -31.571,-115.67 -49.571,-271.45 -49.571,-413.8 0,-62.8 3.914,-121.85 11.161,-175.02 -34.676,-16.79 -68.204,-34.6 -90.418,-49.5 -53.965,-36.64 -166.661,-134.37 -245.293,-268.53 -50.11,-85.26 -73.551,-151.23 -80.391,-315.73 -1.148,-28.09 -4.816,-113.31 -24.172,-147.02 -23.445,-40.72 -101.723,-152.59 -143.867,-212.6 l -44.965,-64.95 c -30.863,-46.73 -50.324,-110.53 -74.488,-195.59 l -9.4768,-31.22 C 86.7344,1244.66 58.6328,1179.72 47.9492,1162.1 12.7305,1108.7 0.0429688,1047.04 0.0429688,983.371 0.0429688,917.77 13.3438,850.32 28.8945,786.992 69.3906,622.602 233.844,361.531 372.684,152.332 l 18.625,-28.113 -4.016,6.703 C 424.16,63.8789 475.41,22.082 539.828,6.26172 635.586,-16.9102 705.945,30.2891 739.75,52.8398 l 16.66,11.0391 C 868.961,133.102 929.637,227.449 965.68,283.84 c 0,0 4.746,7.269 9.011,13.68 14.293,10.531 37.639,27.89 37.639,27.89 69.91,50.399 114.12,83.25 143.8,119.36 114.1,138.152 169.71,347.351 177.84,446.511 l 7.73,82.078 c 20.17,209.001 26.8,296.171 26.8,343.641 0,17.53 -0.72,29.45 -2.42,40.41 0,-0.25 1.34,-18.34 1.34,-18.34 0.96,19.57 12.13,68.75 22.23,97.73 61.36,-15.28 140.64,-45.43 165.38,-59.92 75.98,-44.57 287.83,-148.13 609.98,-146.69 353.75,1.81 546.22,49.5 596.73,63.99 73.02,21.18 208.73,65.29 263.19,94.2 l -4.89,-2.52 9.82,4.36 c 37.33,16.38 90.82,41.24 139.74,78.63 184.34,6.22 323.97,6.22 426.8,2.63 -62.05,-67.87 -121.78,-154.61 -159.01,-263.73 -38.75,-113.44 -64.07,-268.328 -75.53,-460.531 -5.08,-84.918 -8.32,-148.438 -8.32,-197.418 0,-110.039 16.44,-147.371 65.6,-192.59 l 71.05,-65.16 401.49,69.008 c -0.4,0 -8.95,-1.61 -8.95,-1.61 l 57.16,1 137.96,5.762 c 85.4,11.039 209.75,42.578 302.66,98.871 100.65,61.02 191.53,172.289 212.4,198.629 23.56,24.309 120.43,96.859 155.41,120.82 3.81,1.66 41.82,20.121 41.82,20.121 l 117.75,62.45 c 2.17,1.507 212.86,155.078 292.52,241.438 25.24,27.49 60.67,69.02 96.28,112.02 19.77,-24.04 40.25,-47.41 61.1,-70.3 l 15.31,-16.87 c 89.26,-101.52 202.35,-109.69 272.78,-85.88 l 16.2,5.57 15.24,8.24 c 58.24,32.05 192.4,106.76 244.41,141.75 11.26,4.82 40.78,10.86 54.59,11.88 h 0.15 c 83.71,0 163.55,49.3 205.61,91.76 -3.47,-3.46 9.68,8.65 9.68,8.65 244.68,225.83 683.19,645.91 870.41,924.86 87.49,130.04 143.56,237.25 172.47,400.73 42.34,239.81 38.42,299.82 14.98,515.81 l -4.66,42.46 c -38.68,358.95 -382.18,761.42 -439.35,807.82 l -10.48,8.88 c -67,57.49 -244.55,209.95 -597.01,321.62 -168.42,53.36 -376.89,63.47 -471.78,60.48 -1.15,0.62 -2.01,0.87 -3.24,1.56 -15.71,20.1 -49.5,65.96 -67.87,96.79 -90.93,152.43 -244.7,308.34 -456.27,463.71 l -5.34,3.99 c -0.06,0 -8.93,6.84 -8.93,6.84 -68,52.01 -274.96,210.35 -696.17,293.98 -569.76,112.91 -937.9,-14.96 -1135.67,-83.42" /><path
         id="path16"
         style="fill:#201e23;fill-opacity:1;fill-rule:nonzero;stroke:none"
         d="m 2815.37,1863.22 70.93,480.07 h -537.28 l -318.83,383.06 185.29,1253.81 c -170.4,-27.3 -754.65,-167.09 -976.54,-473.67 -14.28,-19.79 -61.69,-26.08 -87.84,-24.39 -22.88,1.29 -352.823,1.5 -367.323,0.54 -14.777,-1.08 -53.449,-15.97 2.161,-68.67 48.765,-46.65 163.949,-114.24 263.442,-149.88 35.35,-12.52 28.99,-70.68 11.25,-101.44 -61.759,-107.22 -94.009,-514.04 -44.48,-653.95 6.82,-19.78 -3.46,-84.94 -30.834,-93.06 -38.949,-11.19 -125.425,-52.15 -158.738,-74.63 -33.449,-22.57 -125.019,-100.98 -186.035,-205.08 -33.41,-57.03 -48.023,-90.88 -53.586,-224.97 -3.242,-78.93 -11.113,-168.99 -50.254,-236.64 -38.871,-67.73 -172.695,-253.92 -195.039,-287.69 -22.289,-33.74 -49.98,-146.57 -61.355,-180.3 -11.11,-34.12 -47.411,-119.4 -68.204,-151.09 -33.406,-50.47 -6.972,-163.959 7.024,-221.177 C 263.77,653.641 546.852,247.152 559.07,225.27 c 27.887,-50.79 43.27,-26.071 94.676,5.832 110.106,67.378 150.469,180.148 183.875,208.437 33.52,28.07 143.375,100.66 167.339,129.43 83.58,101.582 128.13,270.851 133.69,338.582 5.54,67.578 39.07,383.119 33.6,422.789 -5.69,39.35 27.62,191.53 61.15,231.2 33.38,39.42 100.03,82.56 133.76,78.99 90.61,-9.88 237.3,-65.5 287,-94.42 96.19,-56.61 271.58,-121.03 509.98,-119.88 284.05,1.37 468.66,34.83 543.29,56.44 87.65,25.24 196.41,63.44 225.67,78.87 10.82,5.69 48.01,19.94 82.9,39.35" /><path
         id="path18"
         style="fill:#201e23;fill-opacity:1;fill-rule:nonzero;stroke:none"
         d="m 7050.05,3178.16 c -30.91,286.67 -326.11,642.77 -367.68,676.58 -41.87,33.92 -196.43,186.18 -543.43,296.07 -166.47,52.7 -397.09,54.88 -426.27,50.74 -33.19,-4.74 -104.7,33.65 -121.29,50.58 -16.6,17.15 -75.04,94.68 -104.51,143.92 -121.03,202.9 -363.6,376.35 -409.6,410.22 -45.99,33.85 -221.6,185.98 -626.86,266.36 -581.96,115.32 -929.61,-44.7 -1095.18,-97.33 -320.41,-101.58 -541.33,-256.07 -680.98,-383.04 h 1490.49 l 283.65,-390.64 -75.59,-508.41 h -504.35 l 60.75,409.86 H 2761.06 L 2573.62,2836.33 h 385.55 l 66.58,450.24 h -155.1 l 60.54,408.07 h 678.49 l -126.79,-858.31 h 255.18 l 66.39,448.9 h 508.22 l -83.13,-562.66 -401.28,-379.28 H 3409.81 L 3356.1,1979.9 h 998.87 l 254.45,1719.95 h 675.64 L 5224.1,3287.18 H 5067.38 L 4855.97,1858.4 4468.72,1484.21 H 3902.5 c -114.73,-55.67 -222.92,-157.33 -279.7,-339.98 -73.01,-234.66 -71.1,-642.628 -71.1,-642.628 0,0 259.23,42.25 296.71,50.64 37.7,8.539 137.94,0 204.93,8.539 66.85,8.188 163.01,33.649 225.73,71.93 62.44,37.84 133.75,118.371 162.94,156.309 29.26,38.121 175.54,143.71 200.61,160.64 25.18,16.93 121.35,55.11 150.53,76.33 29.07,20.99 204.74,152.04 263.32,215.58 58.46,63.23 164.39,193.76 196.33,241.1 54.47,80.24 109.67,13.13 117.18,-12.89 20.86,-71.65 116.89,-169.03 150.37,-206.97 33.36,-38.32 62.75,-29.74 62.75,-29.74 0,0 192.16,105.67 233.92,135.39 41.79,29.67 129.63,42.27 154.63,42.27 25.32,0 58.67,21.08 71.12,33.8 12.44,12.59 635.18,575.19 856.78,904.88 73.43,109.16 118.72,193.2 142.23,325.75 41.65,236.5 33.39,270.28 8.27,503" /><path
         id="path20"
         style="fill:#ffffff;fill-opacity:1;fill-rule:nonzero;stroke:none"
         d="m 5979.85,2647.67 c -55.6,-84.51 -130.71,-84.68 -130.71,-84.68 -170.14,-7.43 -177.8,162.57 -177.8,162.57 9.11,366.99 424.92,594.28 569.19,669.24 0,0 53.84,30.75 26.82,-16.05 -138.83,-241.92 -202.03,-421.46 -220.12,-505.62 0,0 -32.91,-172.71 -67.38,-225.46" /><path
         id="path22"
         style="fill:#ffffff;fill-opacity:1;fill-rule:nonzero;stroke:none"
         d="m 5979.85,2647.67 c -55.6,-84.51 -130.71,-84.68 -130.71,-84.68 -170.07,-7.43 -177.51,162.57 -177.51,162.57 8.82,366.99 424.78,594.28 568.9,669.24 0,0 53.84,30.75 27.08,-16.05 -139.09,-241.92 -202.29,-421.46 -220.38,-505.62 0,0 -32.91,-172.71 -67.38,-225.46" /><path
         id="path24"
         style="fill:#cab568;fill-opacity:1;fill-rule:nonzero;stroke:none"
         d="m 5237.44,772.34 h 34.75 c 17.26,0 50.45,0 50.45,33.34 0,9.679 -4.12,22.562 -16.73,28.242 -8.54,3.297 -15.84,3.297 -41.72,3.297 h -26.75 z m 34.21,98.09 c 24.11,0 41.03,-0.551 55.11,-5.981 25.76,-9.058 37.95,-32.957 37.95,-55.527 0,-16.57 -6.37,-46.262 -48.43,-56.942 22.62,-9.558 29.45,-23.511 33.64,-50.261 4.74,-33.27 7.34,-50.387 17.92,-71.848 h -47.97 c -6.72,13.942 -7.72,23 -12.54,52.539 -7.85,50.86 -11.03,55.75 -70.37,55.75 V 629.871 h -42.04 V 870.43 Z m 2.01,51.941 c -92.37,0 -169.71,-76.121 -169.71,-173.672 0,-97.969 76.74,-173.437 170.26,-173.437 98.34,0 170.42,80.398 170.42,173.117 0,96.363 -72.63,173.992 -170.82,173.992 z m 0,-364.23 c -97.11,0 -186.43,77.629 -186.43,190.558 0,109.852 86.23,190.723 186.43,190.723 105.12,0 187.62,-82.82 187.62,-191.043 0,-101.918 -78.83,-190.238 -187.62,-190.238" /></g></g></svg>