<?xml version="1.0" encoding="utf-8"?>
<!-- Generator: Adobe Illustrator 25.4.1, SVG Export Plug-In . SVG Version: 6.00 Build 0)  -->
<svg version="1.1" id="Layer_1" xmlns="http://www.w3.org/2000/svg" xmlns:xlink="http://www.w3.org/1999/xlink" x="0px" y="0px"
	 viewBox="0 0 120 120" style="enable-background:new 0 0 600 600;" xml:space="preserve">
<style type="text/css">
	.st0{fill:#062F6B;}
</style>
<g>
	<path class="st0" d="M55.4,113.4c2.8-1.5,6.2-3.7,9.8-6.4V74l-9.8-6.5V113.4z"/>
	<path class="st0" d="M55.4,44.6l9.8,6.5V34.4c-3.3-0.2-6.5-0.2-9.8-0.3V44.6z"/>
	<path class="st0" d="M84.8,36.1c-3.3-0.4-6.5-0.8-9.8-1v22.5l9.8,6.5V36.1z"/>
	<path class="st0" d="M75,80.5v18c3.3-3.3,6.6-7.1,9.8-11.4l0,0L75,80.5z"/>
	<path class="st0" d="M84.8,87.1L84.8,87.1L84.8,87.1L84.8,87.1z"/>
	<path class="st0" d="M94.7,37.6v33.1l0,0c4.3-8.9,7.7-19.2,9.7-31.3l-0.3-0.1C100.9,38.7,97.8,38.1,94.7,37.6"/>
	<polygon class="st0" points="65.2,51.1 65.2,74 75,80.5 75,57.6 	"/>
	<path class="st0" d="M84.8,64.2v22.9l0,0c3.5-4.8,6.8-10.2,9.8-16.3v-0.1L84.8,64.2z"/>
	<path class="st0" d="M94.7,70.8C94.7,70.8,94.7,70.7,94.7,70.8L94.7,70.8L94.7,70.8z"/>
	<path class="st0" d="M33.8,75.5c2.9-0.8,5.5-2.4,7.4-4.6c-1.1-0.4-2.3-0.8-3.8-1.1C36.4,72.1,35,74,33.8,75.5"/>
	<path class="st0" d="M18.2,70.9c2,2.2,4.5,3.8,7.4,4.6c-1.2-1.4-2.6-3.3-3.6-5.7C20.6,70.1,19.3,70.5,18.2,70.9"/>
	<path class="st0" d="M28.3,47c-1.1,1.2-2.3,2.8-3.4,4.9c1,0.1,2.2,0.2,3.4,0.3V47z"/>
	<path class="st0" d="M38.4,67.1c1.8,0.4,3.3,0.9,4.5,1.4c1.2-1.9,1.9-4.1,2.1-6.5h-5.7C39.2,63.9,38.9,65.5,38.4,67.1"/>
	<path class="st0" d="M25.6,45.7c-2.9,0.8-5.5,2.4-7.4,4.6c1.1,0.4,2.3,0.8,3.8,1.1C23.1,49.1,24.4,47.2,25.6,45.7"/>
	<path class="st0" d="M41.2,50.3c-1.9-2.2-4.5-3.8-7.4-4.6c1.2,1.4,2.6,3.3,3.6,5.7C38.9,51.1,40.2,50.7,41.2,50.3"/>
	<path class="st0" d="M39.4,59.2h5.7c-0.2-2.4-1-4.5-2.1-6.5c-1.2,0.5-2.7,1-4.5,1.4C38.9,55.7,39.2,57.4,39.4,59.2"/>
	<path class="st0" d="M31.1,74.2c1.1-1.2,2.3-2.8,3.4-4.9c-1.1-0.1-2.2-0.2-3.4-0.3V74.2z"/>
	<path class="st0" d="M28.3,62h-5.4c0.1,1.6,0.4,3.2,0.9,4.5c1.4-0.2,2.9-0.4,4.5-0.4V62z"/>
	<path class="st0" d="M31.1,66.1c1.6,0.1,3.1,0.2,4.5,0.4c0.4-1.4,0.8-2.9,0.9-4.5h-5.4V66.1z"/>
	<path class="st0" d="M34.5,52c-1-2.1-2.3-3.8-3.4-4.9v5.2C32.3,52.2,33.5,52.1,34.5,52"/>
	<path class="st0" d="M36.5,59.2c-0.1-1.6-0.4-3.2-0.9-4.5c-1.4,0.2-2.9,0.4-4.5,0.4v4.1H36.5z"/>
	<path class="st0" d="M24.9,69.3c1,2.1,2.3,3.7,3.4,4.9V69C27.1,69,26,69.1,24.9,69.3"/>
	<path class="st0" d="M21,54.1c-1.8-0.4-3.3-0.9-4.5-1.4c-1.1,1.9-1.9,4.1-2.1,6.5h5.7C20.2,57.4,20.5,55.7,21,54.1"/>
	<path class="st0" d="M28.3,55.1c-1.6-0.1-3.1-0.2-4.5-0.4c-0.5,1.4-0.8,2.9-0.9,4.5h5.4V55.1z"/>
	<path class="st0" d="M20.1,62h-5.7c0.2,2.4,1,4.5,2.1,6.5c1.2-0.5,2.7-1,4.5-1.4C20.6,65.5,20.2,63.9,20.1,62"/>
</g>
<g>
	<path class="st0" d="M1.7,39.5c7.2,44.6,35.1,66.3,49,74V34.2C34.3,34.4,17.9,36.1,2,39.5H1.7z M29.7,42.3
		c10.1,0,18.3,8.2,18.3,18.3c0,10.1-8.2,18.3-18.3,18.3s-18.3-8.2-18.3-18.3C11.5,50.5,19.7,42.3,29.7,42.3"/>
	<path class="st0" d="M104,5.4L104,5.4C87.5,1.9,70.5,0,53.1,0c-17.5,0-34.5,1.9-51,5.4H2C0.8,5.7,0,6.7,0,8v9.2
		C0,23.3,0.4,29,1,34.4C18.1,30.8,35.6,29,53.1,29s35,1.8,52,5.4c0.7-5.4,1-11.1,1-17.2V8C106.1,6.7,105.2,5.7,104,5.4 M92.5,28.2
		C79.7,25.8,65.1,25,53,25l0,0c-12,0-26.7,0.7-39.5,3.2c-0.5,0.1-0.9-0.3-0.6-0.9l8.4-18.5c0.1-0.2,5.5-2.9,5.5-2.9
		C33.7,4.5,45.1,5.1,53,8l0,0c7.9-2.9,19.3-3.6,26.2-2.1c0,0,5.4,2.7,5.5,2.9l8.4,18.5C93.4,27.9,93,28.3,92.5,28.2"/>
</g>
<g>
	<path class="st0" d="M77.1,9.1l3.5,9.5c-8.2-1.1-15-0.6-25.1,2.7v0.9c9.5-0.4,21.5-0.9,31.3,1.2l-5.3-12.2L77.1,9.1z"/>
	<path class="st0" d="M25.4,18.6l3.5-9.5l-4.4,2l-5.3,12.2c9.7-2.1,21.8-1.6,31.3-1.2v-0.9C40.5,18,33.6,17.5,25.4,18.6"/>
</g>
<g>
</g>
</svg>
